<?xml version="1.0" encoding="UTF-8"?>
<svg version="1.1" viewBox="0 0 1600 896" width="1280" height="1280" xmlns="http://www.w3.org/2000/svg">
<path transform="translate(218,317)" d="m0 0c1.86 0.93 3.67 1.93 5.46 2.98 1.54 0.91 1.54 0.91 3.12 1.84 1.07 0.64 2.13 1.27 3.23 1.93 1.06 0.62 2.11 1.24 3.2 1.88 5.15 3.04 10.2 6.14 15.3 9.33 2.26 1.4 4.58 2.67 6.93 3.92 3.96 2.13 7.87 4.34 11.8 6.62 3.84 2.26 7.7 4.45 11.6 6.56 4.35 2.35 8.59 4.83 12.8 7.39 2.65 1.6 5.32 3.18 8 4.74 0.98 0.57 1.97 1.15 2.99 1.75 2.81 1.63 5.65 3.22 8.49 4.81 0.86 0.48 1.72 0.97 2.6 1.47 1.71 0.96 3.43 1.92 5.16 2.87 0.79 0.45 1.58 0.9 2.39 1.36 0.71 0.39 1.42 0.79 2.15 1.2 2.15 1.63 2.77 2.85 3.78 5.35 0.24 2.38 0.24 2.38 0.23 5.04v3.04c-0.01 1.07-0.02 2.14-0.03 3.25-0.01 1.1-0.01 2.21-0.01 3.34-0.01 3.53-0.04 7.05-0.07 10.6-0.01 2.39-0.01 4.78-0.02 7.17-0.02 5.86-0.06 11.7-0.1 17.6-9.86-4.9-19.3-10.5-28.8-16.1-6.34-3.78-12.8-7.37-19.2-10.9-0.69-0.37-1.38-0.74-2.09-1.12-1.8-0.97-3.61-1.92-5.41-2.88-10.2-5.44-20.4-11-30.4-16.9-3.11-1.82-6.23-3.63-9.35-5.45-1.68-0.98-3.37-1.96-5.05-2.95-1.8-1.05-3.6-2.07-5.41-3.1-0.93-0.53-1.86-1.07-2.82-1.62-3.16-1.19-4.3-1.07-7.49 0.06-2.87 1.46-5.62 3.09-8.38 4.75-1.7 1.01-3.41 2.01-5.12 3.02-0.9 0.52-1.79 1.05-2.72 1.6-12.1 7.07-24.2 13.9-36.7 20.3-7.6 3.93-15 8.09-22.4 12.5-5.59 3.34-11.2 6.6-16.8 9.86-1.19 0.69-2.37 1.37-3.55 2.06-1.65 0.96-3.32 1.92-4.98 2.88-0.96 0.56-1.93 1.12-2.92 1.7-2.46 1.33-2.46 1.33-5.46 2.33-2.22-5.4-2.34-10.3-2.37-16-0.01-0.95-0.02-1.91-0.03-2.89-0.01-2.02-0.02-4.03-0.03-6.05-0.01-3.08-0.06-6.15-0.11-9.23-0.01-1.96-0.01-3.93-0.02-5.89-0.02-0.92-0.04-1.83-0.06-2.78 0.03-4.54 0.11-6.48 3-10.1 2.47-1.87 4.81-3.39 7.56-4.79 4.35-2.29 8.67-4.62 12.9-7.07 0.88-0.5 0.88-0.5 1.78-1.01 4.06-2.34 8.05-4.76 12-7.23 4.69-2.92 9.44-5.65 14.3-8.26 9.85-5.32 19.5-10.9 29-16.8 3.52-2.14 7.11-4.1 10.8-6.03 2.69-1.49 5.33-3.04 7.96-4.64 0.85-0.51 1.7-1.02 2.57-1.54 1.69-1.02 3.38-2.05 5.06-3.09 0.79-0.47 1.57-0.94 2.38-1.42 1.05-0.64 1.05-0.64 2.12-1.3 2.84-1.06 4.26-0.71 7.14 0.2z" fill="#139ECF"/>
<path transform="translate(219,394)" d="m0 0c2.49 1.23 2.49 1.23 4.88 2.75 0.86 0.54 1.72 1.08 2.62 1.64 1.24 0.8 1.24 0.8 2.5 1.61 4.26 2.71 8.52 5.31 13 7.71 6.24 3.38 12.4 6.92 18.5 10.5 1.13 0.65 2.27 1.31 3.44 1.98 5.14 2.98 10.3 5.95 15.4 8.94 1.59 0.92 3.18 1.84 4.77 2.77 0.76 0.43 1.52 0.87 2.3 1.33 5.02 2.91 10.1 5.77 15.1 8.6 9.05 5.07 17.9 10.4 26.4 16.2l-1 2c-0.09 2.41-0.12 4.79-0.1 7.2 0 0.7 0.01 1.41 0.01 2.14 0 2.26 0.01 4.52 0.03 6.78 0 1.54 0.01 3.07 0.01 4.6 0.01 3.76 0.03 7.52 0.05 11.3-0.62 0.34-1.24 0.68-1.87 1.03-0.82 0.44-1.63 0.89-2.46 1.35-0.81 0.45-1.61 0.89-2.44 1.34-2.35 1.31-2.35 1.31-4.92 3.16-3.19 1.55-4.88 0.95-8.31 0.12-2.98-1.46-2.98-1.46-6.19-3.38-1.24-0.73-2.49-1.46-3.73-2.19-0.99-0.59-0.99-0.59-2-1.2-3.66-2.17-7.34-4.29-11-6.42-1.18-0.69-1.18-0.69-2.39-1.39-6.41-3.71-12.8-7.35-19.3-11-6.81-3.84-13.6-7.71-20.3-11.7-5.6-3.31-11.2-6.59-16.9-9.81-0.67-0.39-1.33-0.77-2.02-1.16-4.34-2.63-4.34-2.63-9.17-3.78-7.77 2.84-14.9 7.68-21.8 12-3.77 2.33-7.64 4.43-11.6 6.52-3.38 1.85-6.66 3.85-9.95 5.85-2.52 1.5-5.07 2.91-7.66 4.3-6.41 3.48-12.7 7.12-19.1 10.8-1.11 0.64-2.22 1.28-3.36 1.93-1.09 0.63-2.18 1.26-3.3 1.91-1.59 0.92-1.59 0.92-3.22 1.85-1.99 1.18-3.95 2.39-5.88 3.65-6.4 4.15-6.4 4.15-10.4 4.22-2.96-1.15-5.66-2.43-8.42-4-0.93-0.52-1.86-1.05-2.82-1.59-5.4-3.19-5.4-3.19-6.49-6.47-0.23-3.91-0.19-7.83-0.19-11.8-0.01-1.07-0.02-2.14-0.03-3.25-0.03-11.3-0.03-11.3 2.22-16 2.22-1.99 4.68-3.31 7.31-4.69 0.75-0.41 1.5-0.83 2.27-1.25 1.62-0.9 3.24-1.79 4.86-2.67 4.4-2.39 8.72-4.9 13.1-7.39 1.79-1.02 3.59-2.04 5.38-3.07 4.52-2.58 9.02-5.21 13.5-7.87 7.63-4.52 15.4-8.88 23.1-13.2 5.85-3.31 11.7-6.66 17.5-10.1 1.35-0.79 2.7-1.59 4.04-2.38 2.08-1.22 4.14-2.44 6.2-3.69 2.16-1.3 4.33-2.59 6.51-3.87 0.65-0.4 1.29-0.8 1.96-1.21 4.21-2.44 6.69-3.09 11.4-1.6z" fill="#139ECF"/>
<path transform="translate(219,472)" d="m0 0c1.94 1.04 3.74 2.22 5.58 3.44 3.37 2.18 6.86 4.13 10.4 6.11 0.62 0.35 1.23 0.7 1.86 1.06 0.66 0.37 1.32 0.75 2 1.13 2.53 1.44 5.05 2.89 7.57 4.34 0.93 0.53 1.87 1.07 2.82 1.62 1.85 1.06 3.69 2.11 5.54 3.18 4.37 2.5 8.77 4.87 13.3 7.12 3.29 1.79 6.56 3.64 9.81 5.5 0.87 0.49 1.74 0.97 2.64 1.47 0.83 0.48 1.66 0.95 2.51 1.44 1.13 0.64 1.13 0.64 2.28 1.29 1.76 1.3 1.76 1.3 2.76 4.3h-2l-1 3c-2.1 1.33-2.1 1.33-5.06 2.81-8.03 4.15-15.8 8.75-23.5 13.4-0.99 0.59-1.99 1.18-3.02 1.79-0.89 0.53-1.78 1.06-2.7 1.61-2.86 1.49-5.56 2.58-8.68 3.4-2.06-1.2-2.06-1.2-4-3-2.63-1.52-5.3-2.94-7.98-4.37-2.02-1.09-4.03-2.22-6.01-3.39-0.95-0.55-1.9-1.11-2.89-1.68-0.86-0.51-1.72-1.03-2.61-1.56-3.11-1.24-4.32-0.89-7.51 0-1.84 0.9-3.64 1.88-5.41 2.91-1.01 0.58-2.02 1.15-3.06 1.75-1.04 0.61-2.08 1.21-3.15 1.84-2.08 1.2-4.15 2.4-6.23 3.59-0.92 0.54-1.83 1.07-2.78 1.62-2.37 1.29-2.37 1.29-5.37 2.29-2.32-1.13-4.44-2.29-6.62-3.62-1.28-0.76-2.55-1.51-3.83-2.27-0.61-0.36-1.23-0.73-1.86-1.11-2.02-1.2-4.07-2.32-6.13-3.44-6.06-3.34-12-6.95-17.9-10.6-1.49-0.89-3.02-1.71-4.56-2.52-2.51-1.76-2.55-2.59-3.11-5.48 1.17-0.58 2.35-1.15 3.55-1.75 3.93-1.97 7.76-4.07 11.6-6.25 5.52-3.13 11.1-6.19 16.6-9.21 12.2-6.6 24.2-13.5 36.2-20.6 3.96-2.3 5.54-2.39 10.1-1.21zm65 40v2l2-1-2-1z" fill="#139FCF"/>
<path transform="translate(901 412)" d="m0 0c0.73-0.01 1.45-0.02 2.2-0.03 0.83-0.02 1.65-0.04 2.5-0.06 0.9-0.01 1.79-0.01 2.72-0.01 1.38-0.02 1.38-0.02 2.8-0.03 1.97-0.02 3.93-0.03 5.9-0.02 2.98-0.01 5.95-0.07 8.93-0.12 10.4-0.09 18.6-0.08 27.2 6.67v3c0.78 0.91 1.57 1.82 2.38 2.75 7.13 9.53 5.04 26.3 3.87 37.5-0.09 1.01-0.09 1.01-0.19 2.04-0.68 5.78-2.78 9.63-7.06 13.5-0.66 0.47-1.32 0.94-2 1.42-0.66 0.48-1.32 0.96-2 1.45-3.47 2.25-6.06 3.55-10.2 3.59-0.83 0.01-1.66 0.03-2.51 0.04-0.89 0-1.78 0-2.69 0.01-1.39 0.01-1.39 0.01-2.81 0.02-1.96 0.01-3.91 0.01-5.87 0.01-2.97 0.01-5.94 0.04-8.91 0.08-1.91 0.01-3.82 0.01-5.73 0.01-0.87 0.02-1.75 0.03-2.65 0.05-7.52-0.06-14.3-1.89-20.2-6.62-4.74-5.66-7.8-10.2-7.15-17.9 1.21-7.16 4.38-13.2 9.81-18 5.48-3.71 9.23-4.56 15.8-4.39 0.81 0.01 1.62 0.01 2.46 0.02 2.56 0.02 5.13 0.07 7.7 0.12l5.25 0.06c4.27 0.04 8.54 0.11 12.8 0.19 0.89 4.08 1.16 7.81 1 12-2.53 2.53-8.65 1.84-12 2-1.5 0-2.99-0.02-4.49-0.04-0.78-0.01-1.57-0.03-2.38-0.04-1.55-0.03-3.11-0.07-4.67-0.13-5.26-0.11-8.78 0.75-13.5 3.21-2.5 3.18-2.54 7.07-3 11 0.64 0.15 1.28 0.29 1.94 0.44 2.06 0.56 2.06 0.56 3.06 1.56 6.99 1.19 13.9 1.15 21 1.13 1.14 0 2.27 0 3.45 0.01 3.18-0.01 6.36-0.05 9.55-0.14 0.82-0.02 1.64-0.04 2.49-0.05 2.37-0.1 2.37-0.1 5.51-0.95 4.27-5.38 3.52-11.4 3.5-18 0-2.09 0.04-4.17 0.09-6.26v-3.99c0.01-1.21 0.02-2.41 0.03-3.65-0.36-3.28-0.36-3.28-2.88-5.47-7.8-4.71-17.2-3.86-26-3.66-2.29 0.05-4.58 0.09-6.86 0.13-1 0.02-2 0.04-3.03 0.07-2.97-0.21-5.11-0.95-7.8-2.2-0.22-1.43-0.43-2.87-0.62-4.31-0.18-1.2-0.18-1.2-0.36-2.43-0.03-2.97 0.67-4.97 3.78-5.66z" fill="#13A1D3"/>
<path transform="translate(1114 412)" d="m0 0c1.08 0 2.16 0.01 3.27 0.01 3.43 0.02 6.87 0.06 10.3 0.1 2.33 0.01 4.67 0.02 7 0.04 5.71 0.03 11.4 0.08 17.1 0.14 1.1 3.31 0.92 5.25 0.56 8.69-0.1 0.99-0.21 1.99-0.31 3.01-0.13 1.14-0.13 1.14-0.25 2.3-1.87 0.04-1.87 0.04-3.78 0.08-4.63 0.09-9.26 0.19-13.9 0.3-2.01 0.04-4.01 0.08-6.01 0.12-2.89 0.06-5.77 0.12-8.65 0.19-0.89 0.01-1.78 0.03-2.7 0.05-4.11 0.09-7.97 0.25-12 1.26v6c3.04 1.52 6.22 1.18 9.57 1.21 1.55 0.03 3.1 0.06 4.65 0.09 2.44 0.04 4.89 0.08 7.33 0.1 2.36 0.03 4.72 0.08 7.08 0.13 0.72 0 1.43 0 2.17 0.01 6.1 0.14 11.7 1.39 16.5 5.35 6.36 7.89 8.37 14.5 8.31 24.6-1.16 6.68-5.27 10.6-10.6 14.5-6.32 3.49-12 3.4-19.1 3.3-1.15-0.01-2.29-0.01-3.47-0.02-3.64-0.01-7.27-0.05-10.9-0.09-2.48-0.01-4.95-0.03-7.42-0.04-6.05-0.03-12.1-0.08-18.1-0.15-2.12-3.83-2.32-6.6-2-11 1.01-2.22 1.01-2.22 2-4 0.59 0 1.18-0.01 1.78-0.01 6.15-0.07 12.3-0.15 18.4-0.25 2.29-0.03 4.59-0.06 6.88-0.08 3.3-0.04 6.6-0.09 9.9-0.15 1.53 0 1.53 0 3.1-0.01 6.96-0.09 6.96-0.09 12.9-3.5 1.18-2.99 1.1-4.57 0.31-7.68-1.6-2.82-2.29-3.22-5.31-4.32-2.76-0.24-5.44-0.39-8.21-0.45-1.63-0.07-3.27-0.13-4.91-0.19-2.56-0.09-5.13-0.17-7.69-0.24-18.6-0.5-18.6-0.5-24.2-6.12-3.7-4.07-6.44-9.56-7-15 1.23-3.61 2.77-6.89 5-10 0.99-0.33 1.98-0.66 3-1 0.26-0.62 0.53-1.23 0.81-1.87 3.68-6.59 12-5.52 18.5-5.42z" fill="#129BCB"/>
<path transform="translate(643 411)" d="m0 0c1.01-0 2.02-0.01 3.06-0.01 2.13-0.01 4.26 0 6.38 0.02 3.24 0.03 6.47 0 9.71-0.03 2.07 0 4.15 0.01 6.23 0.02 1.43-0.02 1.43-0.02 2.89-0.03 6.56 0.11 11.8 1.47 17 5.69 1.17 2.04 1.17 2.04 2 4 0.43 0.69 0.85 1.38 1.29 2.08 4.47 7.27 4.39 12.5 2.59 20.6-1.96 6.59-5.71 9.22-11.6 12.4-4.35 2.14-7.96 2.42-12.8 2.28-0.77 0-1.53-0.01-2.32-0.01-2.42-0.02-4.83-0.07-7.25-0.13-1.65-0.02-3.3-0.03-4.95-0.05-4.01-0.04-8.03-0.11-12-0.2-1.49-4.83-2.29-8.04-1-13 1.92-1.91 5.39-1.13 7.93-1.14 1.43-0.01 2.86-0.03 4.29-0.06 2.27-0.02 4.53-0.05 6.79-0.05 2.18 0 4.36-0.03 6.54-0.07 1.96-0.02 1.96-0.02 3.96-0.03 4.34-0.8 5.8-2.23 8.49-5.65 0.99-3.21 1.27-5.09 0.32-8.31-1.67-2.15-2.68-2.19-5.32-2.69-2.77-0.11-5.53-0.18-8.3-0.2-0.81 0-1.61-0.01-2.44-0.02-1.7-0.01-3.39-0.01-5.09-0.02-2.59-0.01-5.18-0.04-7.77-0.07-1.65 0-3.3-0.01-4.95-0.01-0.78-0.02-1.55-0.03-2.34-0.04-4.55 0.02-7.5 0.52-11.1 3.36-3.58 6.46-3.18 14.4-3.18 21.6-0.02 0.83-0.03 1.66-0.04 2.52-0.23 6.33-0.23 6.33 2.22 11.8 7.61 2.97 16.6 2.43 24.6 2.63 1.29 0.04 2.58 0.08 3.91 0.12 3.15 0.09 6.31 0.18 9.46 0.25v14c-4.8 0.13-9.6 0.22-14.4 0.28-1.63 0.02-3.26 0.06-4.89 0.1-10.8 0.28-19.2 0.15-27.8-7.19-7.46-7.18-7.98-16.5-8.23-26.3-0.1-11.5 0.27-21.5 7.37-31 6.48-6.05 12-7.61 20.7-7.52z" fill="#13A0D2"/>
<path transform="translate(722 412)" d="m0 0c1.49-0.02 1.49-0.02 3.01-0.04 1.6-0.01 1.6-0.01 3.24-0.02 1.66-0.01 1.66-0.01 3.36-0.03 2.34-0.01 4.69-0.02 7.03-0.03 3.57-0.02 7.14-0.06 10.7-0.1 2.28-0.01 4.56-0.02 6.84-0.03 1.06-0.02 2.12-0.03 3.21-0.05 11.3 0.03 16.9 3.68 24.7 11.5 0.6 0.55 1.2 1.11 1.81 1.68 1.19 1.32 1.19 1.32 1.19 3.32 0.98 1.7 0.98 1.7 1.98 3.43 2.64 5.18 2.53 9.91 2.41 15.6 0 1.03-0.01 2.06-0.02 3.13-0.02 3.27-0.07 6.54-0.12 9.81-0.02 2.22-0.04 4.45-0.05 6.68-0.05 5.44-0.12 10.9-0.2 16.3h-14c-1.89-4.73-2.25-7.95-2.16-12.9 0.01-0.75 0.01-1.5 0.02-2.27 0.01-2.39 0.05-4.78 0.08-7.18 0.03-2.38 0.05-4.76 0.07-7.14 0.01-1.47 0.03-2.95 0.05-4.43 0.3-8.68 0.3-8.68-2.75-16.4-6.39-4.66-12-5.81-19.8-5.82h-3.74c-1.28 0-2.56 0.01-3.87 0.01-1.29 0-2.58-0.01-3.91-0.01h-3.73c-1.69 0.01-1.69 0.01-3.41 0.01-2.91 0-2.91 0-5.83 1.13-1.25 2.51-1.16 4.28-1.2 7.09-0.02 1.06-0.04 2.12-0.07 3.21-0.01 1.15-0.03 2.3-0.05 3.49-0.02 1.17-0.04 2.34-0.06 3.55l-0.18 11.3c-0.05 2.55-0.09 5.09-0.13 7.63-0.11 6.25-0.21 12.5-0.31 18.8h-14c-1.07-3.22-1.14-5.57-1.16-8.96-0.01-1.22-0.02-2.45-0.03-3.71 0-1.34-0.01-2.67-0.01-4.01-0.01-1.38-0.01-2.75-0.02-4.12-0.01-2.88-0.02-5.76-0.02-8.64-0.01-3.69-0.03-7.37-0.06-11.1-0.02-2.83-0.02-5.67-0.02-8.51-0.01-1.36-0.01-2.72-0.03-4.07-0.01-1.91-0.01-3.81-0.01-5.71 0-1.08 0-2.16-0.01-3.28 0.43-3.37 1.31-5.24 3.37-7.93 2.92-0.97 4.84-1.15 7.88-1.18z" fill="#13A2D4"/>
<path transform="translate(432 412)" d="m0 0c1.5-0.03 1.5-0.03 3.04-0.06 1.08-0.01 2.17-0.02 3.28-0.02 1.12-0.02 2.25-0.03 3.4-0.04 2.38-0.02 4.76-0.03 7.14-0.04 3.61-0.02 7.22-0.08 10.8-0.14 23.1-0.21 23.1-0.21 31.4 6.62 2.43 2.94 2.43 2.94 4 6 0.88 1.24 1.77 2.47 2.68 3.69 2.73 3.67 3.44 6.6 3.43 11.2v2.97c-0.01 1.06-0.01 2.12-0.02 3.2v3.29c-0.01 3.46-0.02 6.93-0.03 10.4-0.01 2.35-0.01 4.69-0.01 7.04-0.02 5.76-0.03 11.5-0.05 17.3h-13c-1.26-3.76-1.37-7.39-1.57-11.3-0.04-0.83-0.09-1.65-0.13-2.51-0.23-4.7-0.32-9.37-0.26-14.1 0.01-0.97 0.02-1.95 0.03-2.95 0.04-1.89 0.08-3.78 0.14-5.67 0.1-5.63-0.37-9.55-3.21-14.5-1.78-1.59-1.78-1.59-3.88-2.37-0.66-0.3-1.31-0.6-1.99-0.9-6.74-2.3-13.6-1.91-20.6-1.92-1.23-0.01-2.45-0.02-3.71-0.03-1.18 0-2.36-0.01-3.57-0.01-1.08 0-2.15-0.01-3.26-0.01-3.03 0.25-5.22 0.96-7.96 2.24-0.86 6.62-1.14 13.1-1.1 19.7v2.99c0.01 3.12 0.02 6.24 0.03 9.35 0.01 2.13 0.01 4.26 0.02 6.39 0.01 5.18 0.03 10.4 0.05 15.6h-14c-1.59-4.76-2.26-7.1-2.28-11.8-0.01-1.12-0.02-2.24-0.03-3.39 0-1.2 0-2.4 0.01-3.63-0.01-1.24-0.01-2.49-0.02-3.77v-9.87c0-2.02-0.01-4.03-0.02-6.04-0.02-3.88-0.03-7.76-0.03-11.6-0.01-1.2-0.02-2.4-0.02-3.63 0.05-10.6 0.05-10.6 3.39-15.2 3.23-2.15 4.18-2.26 7.92-2.32z" fill="#13A1D2"/>
<path transform="translate(1328 388)" d="m0 0c0.88 0 1.75 0.01 2.65 0.01h2.78c3.05 0 6.09 0.01 9.14 0.02h6.32c5.55 0 11.1 0.01 16.7 0.03 5.67 0.01 11.3 0.01 17 0.02 11.1 0.01 22.2 0.02 33.4 0.04l-1 3v12c-12.2 0.33-24.4 0.66-37 1-1.77 8.82-1.77 8.82-2.32 17.5-0.01 1.02-0.01 1.02-0.03 2.05-0.03 2.18-0.05 4.37-0.06 6.55-0.02 1.54-0.04 3.07-0.06 4.6-0.05 4-0.09 8.01-0.13 12-0.04 4.09-0.09 8.19-0.14 12.3-0.1 8.01-0.18 16-0.26 24h-13c-1.93-4.82-2.24-7.2-2.21-12.2v-2.15c0.01-2.34 0.03-4.68 0.05-7.02 0.01-1.62 0.01-3.25 0.02-4.88 0.01-4.27 0.03-8.55 0.06-12.8 0.04-6.86 0.07-13.7 0.1-20.6 0.01-2.39 0.02-4.79 0.04-7.19 0.01-1.46 0.02-2.92 0.02-4.38 0.01-1.92 0.01-1.92 0.03-3.88 0.22-2.75 0.22-2.75-1.11-3.86-2.74-0.16-5.45-0.26-8.19-0.31-1.23-0.03-1.23-0.03-2.49-0.06-2.62-0.07-5.25-0.13-7.88-0.19-1.78-0.04-3.56-0.08-5.34-0.13-4.36-0.11-8.73-0.21-13.1-0.31-0.12-0.63-0.25-1.27-0.37-1.93-0.21-0.68-0.42-1.36-0.63-2.07l-2-1c0.31-1.48 0.62-2.95 0.94-4.43 0.17-0.83 0.35-1.65 0.53-2.5 1.09-4.24 3.69-3.18 7.62-3.19z" fill="#13A2D4"/>
<path transform="translate(522,412)" d="m0 0h14v3c0.03 1.67 0.06 3.35 0.09 5.02 0.02 1.02 0.04 2.04 0.06 3.1 0.02 1.1 0.05 2.2 0.07 3.33s0.04 2.25 0.07 3.42c0.07 3.6 0.14 7.21 0.21 10.8 0.05 2.44 0.1 4.88 0.14 7.33 0.12 5.99 0.24 12 0.36 18 1.89-0.1 3.79-0.22 5.68-0.34 1.05-0.07 2.11-0.13 3.19-0.2 12.6-1.85 23.4-14.7 30.6-24.4 4.63-6.61 8.04-13.8 11.6-21.1 0.81-1.63 1.62-3.25 2.44-4.88 0.51-1.03 1.03-2.06 1.56-3.12h15c-1.83 8.43-4.27 15.4-8.5 22.9-0.53 0.95-1.06 1.9-1.61 2.88-11.7 20.5-27.1 36.4-50 43.7-6.81 1.74-14 2.75-20.9 1.5-2.85-2.25-3.85-3.54-5-7-0.13-1.85-0.2-3.71-0.24-5.57-0.02-1.14-0.05-2.28-0.08-3.46-0.02-1.23-0.04-2.47-0.07-3.74-0.02-1.27-0.05-2.54-0.07-3.84-0.06-2.69-0.11-5.38-0.15-8.07-0.06-3.43-0.14-6.86-0.21-10.3-0.08-3.28-0.13-6.57-0.19-9.85-0.03-1.23-0.06-2.46-0.09-3.72-0.02-1.16-0.03-2.31-0.05-3.49-0.02-1.01-0.04-2.02-0.06-3.06 0.21-2.9 0.21-2.9 2.21-8.9z" fill="#13A1D2"/>
<path transform="translate(1290,388)" d="m0 0h15l-1 3c-0.07 2.37-0.08 4.73-0.05 7.1 0.01 1.08 0.01 1.08 0.02 2.18 0.01 1.56 0.03 3.12 0.05 4.68 0.02 2.48 0.04 4.96 0.06 7.43 0.04 7.04 0.09 14.1 0.17 21.1 0.05 4.31 0.07 8.62 0.09 12.9 0.01 1.64 0.03 3.28 0.05 4.92 0.26 17.1 0.26 17.1-6.07 24.6-0.54 0.44-1.08 0.87-1.63 1.32-0.53 0.45-1.07 0.9-1.62 1.37-5.37 3.43-9.8 4.7-16.2 4.71-1 0.01-1 0.01-2.03 0.01-2.19 0.02-4.38 0.01-6.58 0-1.53 0-3.06 0-4.59 0.01-3.2 0-6.4 0-9.6-0.02-4.1-0.02-8.21-0.01-12.3 0.01-3.16 0.01-6.31 0.01-9.47 0-1.52 0-3.03 0-4.54 0.01-2.11 0.01-4.22-0.01-6.33-0.02-1.8-0.01-1.8-0.01-3.64-0.01-0.93-0.12-1.85-0.25-2.81-0.38-2.44-3.65-2.55-6.75-2-11 0.64-1.35 1.31-2.68 2-4 0.8 0 1.6-0.01 2.43-0.01 7.56-0.04 15.1-0.1 22.7-0.17 3.89-0.04 7.78-0.08 11.7-0.09 3.75-0.02 7.5-0.05 11.3-0.1 1.43-0.01 2.86-0.02 4.29-0.02 2.01 0 4.01-0.03 6.02-0.06 1.14-0.01 2.28-0.02 3.46-0.03 3.9-0.64 6.11-2.09 9.19-4.52 1.44-2.89 1.11-5.38 1.1-8.61 0-0.67-0.01-1.35-0.01-2.05 0-1.47-0.01-2.95-0.01-4.42-0.02-2.34-0.02-4.67-0.03-7-0.01-5.79-0.04-11.6-0.06-17.4-0.02-4.89-0.04-9.79-0.05-14.7 0-2.3-0.01-4.6-0.03-6.9 0-1.41 0-2.82-0.01-4.23 0-1.23-0.01-2.46-0.01-3.73 0.11-3 0.11-3 1.11-6z" fill="#13A2D4"/>
<path transform="translate(827,388)" d="m0 0h15l-1 3c-0.02 1.56 0.03 3.11 0.12 4.67 0.04 0.8 0.09 1.61 0.13 2.44 0.06 1.01 0.12 2.03 0.19 3.08 0.18 3.24 0.37 6.47 0.56 9.81 15.8 0.5 15.8 0.5 32 1-0.5 1.49-0.5 1.49-1 3-0.07 1.89-0.08 3.79-0.06 5.69 0.01 0.99 0.02 1.99 0.02 3.01 0.02 0.76 0.03 1.52 0.04 2.3-0.74 0.03-1.47 0.05-2.23 0.08-3.34 0.11-6.68 0.23-10 0.36-1.16 0.04-2.32 0.08-3.51 0.12-1.12 0.04-2.23 0.08-3.38 0.12-1.54 0.06-1.54 0.06-3.11 0.11-3.47 0.23-3.47 0.23-6.75 1.21-1.94 3.08-2.27 5.54-2.32 9.14-0.02 1.02-0.04 2.04-0.06 3.09-0.01 1.09-0.02 2.19-0.03 3.32-0.02 1.12-0.04 2.25-0.06 3.41-0.06 3.6-0.11 7.19-0.15 10.8l-0.12 7.32c-0.1 5.97-0.18 12-0.26 17.9h-13c-0.98-2.94-1.15-4.95-1.21-8.02-0.02-1.02-0.04-2.04-0.06-3.1-0.01-1.1-0.03-2.2-0.05-3.33s-0.04-2.25-0.06-3.42c-0.06-3.6-0.12-7.21-0.18-10.8-0.05-2.44-0.09-4.88-0.13-7.33-0.11-5.99-0.21-12-0.31-18-5.13-2.22-9.88-2.4-15.4-2.57-5.42-0.23-5.42-0.23-7.62-2.43-1.17-4.37-1.07-6.97 1-11 2.34-2.34 9.04-1.41 12.4-1.52 1.19-0.05 1.19-0.05 2.41-0.1 0.74-0.03 1.47-0.05 2.22-0.08 2.3-0.21 2.3-0.21 4.98-2.3 0.33-2.59 0.33-2.59 0.12-5.56-0.14-5.28 0.18-10.2 0.88-15.4z" fill="#13A2D4"/>
<path transform="translate(999 412)" d="m0 0h2.73c0.97 0.01 1.94 0.01 2.94 0.02h3.01c3.18 0.01 6.36 0.02 9.54 0.03 2.15 0.01 4.3 0.01 6.46 0.01 5.28 0.02 10.6 0.03 15.8 0.05v3c0.18 1.14 0.37 2.27 0.56 3.44 0.39 3.17 0.31 4.63-0.56 7.56-1.68 0.03-1.68 0.03-3.39 0.06-4.18 0.08-8.35 0.17-12.5 0.26-1.8 0.04-3.6 0.07-5.4 0.11-2.6 0.04-5.2 0.1-7.79 0.16-1.2 0.02-1.2 0.02-2.43 0.03-4.48 0.12-8.34 0.46-12.5 2.38-2.78 2.99-3.38 5.01-3.43 9.05-0.02 1-0.04 2-0.06 3.03-0.01 1.61-0.01 1.61-0.02 3.25-0.02 1.11-0.04 2.21-0.06 3.35-0.05 3.52-0.09 7.05-0.12 10.6-0.03 2.39-0.07 4.78-0.1 7.18-0.09 5.85-0.15 11.7-0.21 17.6h-14c-2.3-12.4-2.29-24.5-2.05-37 0.03-1.78 0.05-3.55 0.06-5.33 0.04-8.52 1.2-15.1 6.99-21.6 5.07-4.22 9.76-7.13 16.5-7.11z" fill="#0C80AA"/>
<path transform="translate(385,388)" d="m0 0h15c0.02 12.2 0.04 24.5 0.05 36.7 0.01 5.68 0.01 11.4 0.03 17 0.01 5.48 0.01 11 0.01 16.4 0.01 2.1 0.01 4.19 0.02 6.29v8.77c0.01 0.87 0.01 1.75 0.01 2.65-0.01 5.98-0.01 5.98-1.12 7.09-2.35 0.07-4.71 0.08-7.06 0.06-1.94-0.01-1.94-0.01-3.91-0.02-1-0.02-2-0.03-3.03-0.04-2.14-4.34-2.28-8.33-2.26-13.1 0-1.19 0-1.19-0.01-2.42-0.01-2.63 0-5.26 0-7.9v-5.51c0-3.85 0-7.7 0.01-11.5 0.01-4.93 0-9.85-0.01-14.8-0.01-3.79 0-7.59 0-11.4v-5.44c-0.01-2.54 0-5.08 0.01-7.63 0-0.74-0.01-1.48-0.01-2.25 0.04-4.94 0.85-8.11 2.27-13.1z" fill="#13A2D4"/>
<path transform="translate(1433,388)" d="m0 0h15l-1 3c-0.09 2.94-0.13 5.85-0.11 8.79v2.72c0 2.97 0 5.94 0.01 8.91 0 2.06 0.01 4.11 0.01 6.17 0 5.42 0.01 10.8 0.02 16.3 0.01 5.53 0.02 11.1 0.02 16.6 0.01 10.9 0.03 21.7 0.05 32.6h-14c-0.99-3.94-1.19-7.49-1.24-11.5-0.01-0.75-0.02-1.5-0.04-2.27-0.04-2.49-0.07-4.97-0.11-7.46-0.02-1.74-0.05-3.47-0.07-5.21-0.06-3.65-0.11-7.29-0.15-10.9-0.06-4.64-0.14-9.28-0.21-13.9-0.06-3.59-0.11-7.18-0.16-10.8-0.02-1.71-0.05-3.42-0.08-5.13-0.16-9.54 0.13-18.4 2.06-27.8z" fill="#13A2D4"/>
<path transform="translate(620,429)" d="m0 0c1 2 1 2 2 5l8 1c-0.02 1.14-0.02 1.14-0.03 2.31-0.04 3.46-0.07 6.92-0.09 10.4-0.02 1.2-0.04 2.39-0.06 3.63-0.01 1.73-0.01 1.73-0.02 3.5-0.01 1.6-0.01 1.6-0.03 3.23 0.24 3.12 0.68 5.23 2.23 7.95 7.04 3.41 17 2.44 24.6 2.62 1.3 0.04 2.59 0.08 3.92 0.12 3.15 0.1 6.3 0.18 9.46 0.26v14c-4.8 0.12-9.6 0.21-14.4 0.27-1.63 0.03-3.26 0.06-4.89 0.11-10.8 0.28-19.2 0.15-27.8-7.2-6.79-6.52-7.81-14.6-8.12-23.7-0.3-17.2-0.3-17.2 2.24-21.5l3-2z" fill="#13A2D3"/>
<path transform="translate(905 437)" d="m0 0c0.81 0.01 1.62 0.01 2.46 0.02 2.57 0.02 5.13 0.07 7.7 0.12l5.25 0.06c4.27 0.04 8.54 0.11 12.8 0.19 0.89 4.08 1.16 7.81 1 12-2.53 2.53-8.64 1.84-12 2-1.49 0-2.99-0.02-4.49-0.04-0.78-0.01-1.57-0.03-2.37-0.04-1.56-0.03-3.12-0.07-4.68-0.13-5.26-0.11-8.78 0.75-13.5 3.21-2.5 3.18-2.54 7.06-3 11 0.96 0.22 0.96 0.22 1.94 0.44 2.06 0.56 2.06 0.56 3.06 1.56 5.45 0.85 10.7 1.14 16.2 1.1 1.12 0 1.12 0 2.25-0.01 2.35 0 4.69-0.01 7.03-0.03 1.6 0 3.21-0.01 4.81-0.01 3.9-0.01 7.79-0.03 11.7-0.05l-1 2c-4.69 1.15-9.31 1.08-14.1 0.96-1.56-0.02-3.11-0.05-4.67-0.07-2.43-0.03-4.87-0.08-7.3-0.14-2.36-0.05-4.73-0.08-7.09-0.1-0.73-0.03-1.45-0.05-2.2-0.08-3.59-0.02-5.3 0.15-8.13 2.45-0.5 0.66-0.99 1.31-1.51 1.98l-4-2v-2c-1.12 1.83-1.12 1.83-2 4l1 3c-4.11-1.52-6.65-4.41-9-8-2.74-6.72-2.04-11.9 0.19-18.6 5.28-10 12.2-15.1 23.6-14.8z" fill="#0D89B6"/>
<path transform="translate(1057,412)" d="m0 0h13v71h-13c-1.67-8.01-2.3-15.5-2.27-23.7v-3.54c0-2.45 0-4.9 0.01-7.35 0.01-3.75 0-7.5-0.01-11.2v-7.18c0-1.11 0-2.23-0.01-3.38 0.01-1.04 0.01-2.09 0.02-3.17 0-0.91 0-1.82 0.01-2.76 0.25-2.7 0.25-2.7 2.25-8.7z" fill="#139DCD"/>
<path transform="translate(979,426)" d="m0 0 2 1v2h10l-1 4h2v50h-14c-2.67-14.4-7.46-44.3 1-57z" fill="#13A2D4"/>
<path transform="translate(432 412)" d="m0 0c1.03-0.01 2.06-0.02 3.11-0.03h3.37c1.14 0 2.28 0 3.45-0.01 2.42 0 4.83-0.01 7.24 0 3.7 0 7.39-0.02 11.1-0.05h7.03c1.11-0.01 2.21-0.02 3.36-0.03 1.03 0.01 2.06 0.02 3.12 0.02h2.74c2.89 0.44 4.28 1.47 6.44 3.37-1.16-0.18-2.31-0.37-3.5-0.56-7.16-0.83-14.3-0.01-21.5 0.56v3c-3.76 1.15-7.47 1.29-11.4 1.5-4.61 0.26-9.07 0.66-13.6 1.5-0.55 2.08-1 3.85-1 6 0.99 0.33 1.98 0.66 3 1-2 2-2 2-5.13 2.13-1.42-0.06-1.42-0.06-2.87-0.13l1 1v2c0.99 0.33 1.98 0.66 3 1l-4 1 5 1c0.7 3.16 1 5.73 1 9-1.49 0.5-1.49 0.5-3 1-0.5-1.48-0.5-1.48-1-3-1.07 4.28-1.68 8.63-1 13 1.84 2.97 1.84 2.97 4 5h-2l-1 2h-2l2 3-1 1c0.02 0.91 0.04 1.82 0.06 2.75-0.06 3.34-0.81 5.21-2.06 8.25-0.17 2.71-0.17 2.71 0 5h-3c-1.52-4.07-2.25-7.47-2.28-11.8 0-1.13-0.01-2.25-0.02-3.4v-3.63c-0.01-1.24-0.01-2.48-0.01-3.76-0.01-3.3-0.01-6.59 0-9.88 0-2.01-0.01-4.03-0.03-6.04-0.02-3.88-0.03-7.75-0.02-11.6-0.01-1.2-0.02-2.4-0.03-3.63 0.06-10.6 0.06-10.6 3.39-15.2 3.28-2.18 4.25-2.25 8.05-2.27z" fill="#0D84AF"/>
<path transform="translate(643 411)" d="m0 0h3.1c2.15 0.01 4.29 0.02 6.44 0.05 3.29 0.04 6.58 0.04 9.87 0.04 2.09 0.01 4.19 0.02 6.28 0.03 0.98 0.01 1.96 0.01 2.97 0.01 0.92 0.01 1.83 0.03 2.78 0.04 0.8 0.01 1.6 0.02 2.43 0.03 2.72 0.48 4.14 1.61 6.21 3.39-0.81-0.16-1.61-0.33-2.44-0.5-2.79-0.39-5.44-0.65-8.25-0.75-0.75-0.02-1.49-0.05-2.26-0.07-2.61 0.41-3.38 1.33-5.05 3.32-2 2-2 2-5.13 2.13-0.95-0.04-1.89-0.08-2.87-0.13l-1 2c-2.77 0.49-2.77 0.49-6.25 0.75-1.14 0.1-2.28 0.2-3.45 0.3-3.32-0.05-5.35-0.61-8.3-2.05l-1 4h-2l1 3c-0.64 0.58-1.28 1.16-1.94 1.75-2.4 2.27-2.4 2.27-3.06 6.25h-10l-1-5c-0.99 0.33-1.98 0.66-3 1 0.29-5.88 2.89-9.95 7-14 6.11-4.95 11.2-5.72 18.9-5.59z" fill="#0D84AF"/>
<path transform="translate(592,412)" d="m0 0h15c-2.33 11-5.55 20.2-14 28-0.5 0.89-0.99 1.77-1.5 2.69-1.86 2.86-3.23 3.49-6.5 4.31-0.99-0.33-1.98-0.66-3-1v4h-2c-0.8-3.29-1.1-4.71 0-8h-2l-1 2c0-4.01 0.03-4.5 2.12-7.5 3.46-5.25 6.13-10.9 8.88-16.5 0.79-1.58 1.58-3.17 2.38-4.75 0.53-1.07 1.07-2.14 1.62-3.25z" fill="#0E8FBE"/>
<path transform="translate(722 412)" d="m0 0c1.49-0.02 1.49-0.02 3.01-0.04 1.6-0.01 1.6-0.01 3.24-0.02 1.66-0.01 1.66-0.01 3.36-0.03 2.34-0.01 4.69-0.02 7.03-0.03 3.57-0.02 7.14-0.06 10.7-0.1 2.28-0.01 4.56-0.02 6.84-0.03 1.06-0.02 2.12-0.03 3.21-0.05 7.41 0.02 14.3 1.04 19.7 6.48-4.75-0.88-4.75-0.88-7-2l-1 2c-1.98-0.33-3.96-0.66-6-1l-1 2c-0.74-0.09-1.47-0.17-2.23-0.26-0.98-0.1-1.95-0.2-2.96-0.31-0.96-0.1-1.92-0.2-2.91-0.31-2.87-0.12-5.13 0.22-7.9 0.88-6.37 0.99-12.6 1.09-19 1h-3c-0.99-0.33-1.98-0.66-3-1v3h-2l-1 2c-0.78-0.04-1.57-0.09-2.37-0.13-2.79-0.16-2.79-0.16-4.63 2.13l-2-1c-0.29-4.97-0.15-8.04 3-12 2.92-0.97 4.84-1.15 7.88-1.18z" fill="#0F99CA"/>
<path transform="translate(1328 388)" d="m0 0c0.88 0 1.75 0.01 2.65 0.01h2.78c3.05 0 6.09 0.01 9.14 0.02h6.32c5.55 0 11.1 0.01 16.7 0.03 5.67 0.01 11.3 0.01 17 0.02 11.1 0.01 22.2 0.02 33.4 0.04v2c-0.87 0.01-1.74 0.02-2.64 0.03-8.21 0.08-16.4 0.16-24.6 0.26-4.22 0.05-8.44 0.1-12.7 0.14-4.07 0.03-8.15 0.08-12.2 0.13-1.55 0.02-3.11 0.04-4.66 0.05-2.18 0.01-4.35 0.04-6.53 0.08-1.24 0.01-2.48 0.02-3.75 0.04-3.03-0.02-3.03-0.02-4.9 2.27l2 2c-1.11 0.09-2.23 0.17-3.37 0.25-1.2 0.25-2.4 0.5-3.63 0.75-0.28 0.64-0.57 1.28-0.86 1.94-1.14 2.06-1.14 2.06-3.82 3.15-1.05 0.24-2.11 0.48-3.19 0.73-1.05 0.25-2.1 0.5-3.18 0.77-2.77 0.39-4.35 0.34-6.95-0.59v-3l-2-1c0.31-1.48 0.62-2.95 0.94-4.43 0.17-0.83 0.35-1.65 0.53-2.5 1.09-4.24 3.69-3.18 7.62-3.19z" fill="#095A78"/>
<path transform="translate(1114 412)" d="m0 0c1.08 0 2.16 0.01 3.27 0.01 3.43 0.02 6.87 0.06 10.3 0.1 2.33 0.01 4.67 0.02 7 0.04 5.71 0.03 11.4 0.08 17.1 0.14v3c-1.98-0.33-3.96-0.66-6-1v2c-7.07 2.39-12.8 3.71-20.3 2.44-2.65-0.7-2.65-0.7-4.68 0.56-0.6-0.16-1.2-0.33-1.82-0.5-5.4-1.23-11.6 1.53-16.1 4.25-4.02 1.64-6.1 0.76-10.1-0.75v-3h2c0.2-0.6 0.41-1.19 0.62-1.81 4.1-6.53 11.9-5.58 18.7-5.48z" fill="#0C7BA2"/>
<path transform="translate(1025,414)" d="m0 0c2.12-0.03 4.25-0.05 6.38-0.06 1.18-0.01 2.36-0.03 3.58-0.04 3.04 0.1 3.04 0.1 5.04 1.1 0.84 4.03 1.16 7.07 0 11-5.89 0.19-11.8 0.37-17.7 0.54-2 0.06-4.01 0.12-6.01 0.18-2.88 0.1-5.76 0.18-8.64 0.26-0.9 0.03-1.79 0.06-2.71 0.09-4.47 0.11-7.91 0.08-12-2.07 2.89-0.81 5.58-1.14 8.56-1.31 2.36-0.19 2.36-0.19 4.44-0.69 1.03-1.31 2.03-2.65 3-4 3.62-0.95 7.27-1 11-1l1-1c1.33-0.68 2.66-1.35 4-2v-1z" fill="#13A2D4"/>
<path transform="translate(901 412)" d="m0 0c1.1-0.01 1.1-0.01 2.23-0.02 1.25-0.02 1.25-0.02 2.53-0.03h2.74c0.93 0 1.87-0.01 2.83-0.01 1.98-0.01 3.96-0.01 5.93 0 3.01 0.01 6.02-0.02 9.03-0.05h5.77c1.34-0.02 1.34-0.02 2.71-0.03 6.17 0.07 10.1 1.41 15.4 4.53l-2 2c-0.58-0.17-1.15-0.33-1.75-0.5-2.4-0.75-2.4-0.75-5.25 0.56-3.63 1.14-3.79 0.56-7-1.06-2.43-0.31-2.43-0.31-5.03-0.27-0.95 0-1.91 0-2.9-0.01-0.99 0.01-1.98 0.02-3.01 0.03-0.99-0.01-1.98-0.02-2.99-0.03-0.96 0.01-1.92 0.01-2.91 0.01-1.3 0.01-1.3 0.01-2.64 0.01-2.85 0.29-4.97 0.95-7.52 2.26-0.31 0.84-0.62 1.69-0.94 2.56-0.35 0.8-0.7 1.61-1.06 2.44-3.12 0.81-3.12 0.81-6 1-2.09-3.41-2.34-6.04-2-10 2-3 2-3 3.82-3.39z" fill="#0C7DA5"/>
<path transform="translate(931 439)" d="m0 0c1.69 1.31 1.69 1.31 2.69 3.31 0.12 3.57 0.12 3.57 0 7-2.6 2.6-8.61 1.9-12 2-7.34-0.15-14.7-0.57-22-1l2-4c2.97 0.33 5.94 0.66 9 1l-1-3c1.3-0.27 1.3-0.27 2.63-0.55 7.17-1.52 7.17-1.52 13.9-4.26 2.44-1.19 2.44-1.19 4.75-0.5z" fill="#13A2D4"/>
<path transform="translate(722 412)" d="m0 0c1.49-0.02 1.49-0.02 3.01-0.04 1.6-0.01 1.6-0.01 3.24-0.02 1.66-0.01 1.66-0.01 3.36-0.03 2.34-0.01 4.69-0.02 7.03-0.03 3.57-0.02 7.14-0.06 10.7-0.1 2.28-0.01 4.56-0.02 6.84-0.03 1.06-0.02 2.12-0.03 3.21-0.05 7.41 0.02 14.3 1.04 19.7 6.48-3.05-0.47-5.32-1.16-8.11-2.52-4.34-1.89-8.36-1.9-13-1.85h-2.58c-1.79 0-3.57 0.01-5.36 0.03-2.74 0.02-5.48 0.02-8.22 0.01l-5.22 0.03c-1.23-0.01-1.23-0.01-2.49-0.01-4.47-0.12-4.47-0.12-7.99 2.31l1 2-2 2-2-1v3h-2l-1 2c-0.78-0.04-1.57-0.09-2.37-0.13-2.79-0.16-2.79-0.16-4.63 2.13l-2-1c-0.29-4.97-0.15-8.04 3-12 2.92-0.97 4.84-1.15 7.88-1.18z" fill="#09607F"/>
<path transform="translate(1064 380)" d="m0 0c0.98-0 1.96-0.01 2.97-0.01 2.53 0.13 2.53 0.13 4.53 1.13-0.33 1-0.66 1.99-1 3-0.07 1.73-0.08 3.46-0.06 5.19 0.02 1.59 0.04 3.18 0.06 4.81h-13c-1.87-5.59-2.29-7.53-1-13 2.61-1.3 4.59-1.13 7.5-1.12z" fill="#14A3D5"/>
<path transform="translate(677,444)" d="m0 0c-2.6 2.6-3.82 2.3-7.45 2.41-1.07 0.04-2.15 0.08-3.26 0.12-1.69 0.05-1.69 0.05-3.41 0.09-1.14 0.04-2.28 0.08-3.45 0.12-2.81 0.1-5.62 0.18-8.43 0.26 0.99 1.32 1.98 2.64 3 4h-2v2h-2l-1 4 2 1h-8c-1.62-4.77-2.29-8.08-1-13 1.91-1.91 5.41-1.28 8.03-1.35 0.7-0.02 1.41-0.05 2.13-0.07 1.49-0.05 2.99-0.09 4.48-0.14 2.28-0.06 4.57-0.14 6.86-0.22 1.45-0.05 2.89-0.09 4.34-0.13 0.69-0.03 1.37-0.05 2.08-0.08 4.85-0.12 4.85-0.12 7.08 0.99z" fill="#0F99CA"/>
<path transform="translate(825,410)" d="m0 0v3l-5 1 2 2h-5c-0.08 0.76-0.16 1.53-0.25 2.31-0.75 2.69-0.75 2.69-2.63 4.5-2.12 1.19-2.12 1.19-5.12 1.19v2l-5-1c-2.21-6.26-2.21-6.26-1.19-9.88 1.19-2.12 1.19-2.12 2.19-3.12 2.98-0.21 5.95-0.38 8.94-0.5 1.65-0.07 3.31-0.14 4.96-0.22 1.11-0.04 1.11-0.04 2.24-0.09 1.95-0.09 1.95-0.09 3.86-1.19z" fill="#0D84AE"/>
<path transform="translate(633,466)" d="m0 0c1.78 0.48 1.78 0.48 3.59 0.96 6.6 1.47 13.2 1.5 20 1.66 1.3 0.04 2.59 0.08 3.93 0.12 3.17 0.1 6.34 0.18 9.51 0.26 0.5 0.99 0.5 0.99 1 2h-2v2c-1.05 0.05-2.1 0.1-3.18 0.15-6.83 0.35-13.3 0.77-19.9 2.51-3.14 0.56-5.81 0-8.91-0.66 0.99-0.33 1.98-0.66 3-1v-2c-0.99 0.33-1.98 0.66-3 1-0.1-0.64-0.21-1.28-0.31-1.94-0.23-0.68-0.46-1.36-0.69-2.06-0.99-0.33-1.98-0.66-3-1v-2z" fill="#0F99CA"/>
<path transform="translate(1288,463)" d="m0 0v3c-4.16 3.73-7.78 4.13-13.2 4.21-1.92 0.03-1.92 0.03-3.88 0.06-1.4 0.01-2.79 0.03-4.19 0.05-1.43 0.02-2.86 0.04-4.29 0.06-3.77 0.05-7.53 0.1-11.3 0.15-3.84 0.05-7.69 0.11-11.5 0.16-7.53 0.11-15.1 0.21-22.6 0.31v-3c0.8 0 1.6-0.01 2.43-0.01 7.56-0.04 15.1-0.1 22.7-0.17 3.89-0.04 7.78-0.08 11.7-0.09 3.75-0.02 7.5-0.05 11.3-0.1 1.43-0.01 2.86-0.02 4.29-0.02 2.01 0 4.01-0.03 6.02-0.06 1.14-0.01 2.28-0.02 3.46-0.03 3.87-0.63 6.1-2.17 9.19-4.52z" fill="#000002"/>
<path transform="translate(522,412)" d="m0 0h14l1 2c-1.98 0.33-3.96 0.66-6 1v7l-5 1-1 10h-2c-2.7-2.7-2.46-4.48-2.75-8.25-0.1-1.12-0.2-2.24-0.3-3.39 0.05-3.36 0.05-3.36 2.05-9.36z" fill="#0C7EA7"/>
<path transform="translate(385,388)" d="m0 0h15l-1 2c-2.56 0.62-2.56 0.62-5 1-0.6 2.76-1 5.16-1 8-1.94 0.56-1.94 0.56-4 1l-1-1-2 8c-0.99-0.33-1.98-0.66-3-1-0.05-1.69-0.09-3.37-0.12-5.06-0.04-1.41-0.04-1.41-0.08-2.85 0.2-3.09 0.2-3.09 2.2-10.1z" fill="#0C82AC"/>
<path transform="translate(1223 470)" d="m0 0c3.55 0.48 6.18 3.15 8.97 5.27-0.9 0.28-1.81 0.57-2.75 0.87-4.87 1.69-7.71 3.33-11.2 7.13-1.5-1-1.5-1-3-3-0.39-2.8-0.22-5.14 0-8 2.61-2.61 4.48-2.24 8.03-2.27z" fill="#0F99CA"/>
<path transform="translate(1056,415)" d="m0 0 1 2c2.13 0.47 2.13 0.47 4.56 0.62 0.83 0.08 1.66 0.15 2.51 0.23 0.63 0.05 1.27 0.1 1.93 0.15 0.62 2.81 0.62 2.81 1 6-0.99 1.49-0.99 1.49-2 3l-1-7-2 5h-3v10l-2 1-2-1c-0.03-2.77-0.05-5.54-0.06-8.31-0.01-0.79-0.02-1.57-0.03-2.38 0-0.76 0-1.52-0.01-2.3 0-0.69-0.01-1.39-0.01-2.11 0.11-1.9 0.11-1.9 1.11-4.9z" fill="#0F99CA"/>
<path transform="translate(843,411)" d="m0 0 31 1v2h-6l2 2c-5.22 0.85-10.5 1.24-15.8 1.44-1.91 0.09-1.91 0.09-3.86 0.18-1.68-0.31-1.68-0.31-3.39-0.62l-4-6z" fill="#0A688A"/>
<path transform="translate(617,431)" d="m0 0h2c0.12 0.8 0.25 1.61 0.38 2.44 0.3 1.27 0.3 1.27 0.62 2.56l2 1c0.25 6.62 0.25 6.62-2 10v3c-0.99 0.33-1.98 0.66-3 1l2 1v6l-2 1-2-1c-0.06-3.56-0.09-7.12-0.12-10.7-0.02-1-0.04-2.01-0.06-3.05-0.01-1.46-0.01-1.46-0.02-2.96-0.01-0.89-0.02-1.79-0.03-2.71 0.25-2.85 1.05-5 2.23-7.59z" fill="#0F99CA"/>
<path transform="translate(1290,388)" d="m0 0h15v2c-2.31 0.33-4.62 0.66-7 1l-1 4h-3c-0.05 0.71-0.1 1.42-0.15 2.15-0.07 0.92-0.15 1.84-0.23 2.79-0.06 0.91-0.13 1.83-0.21 2.77-0.13 0.76-0.27 1.51-0.41 2.29l-2 1v-4c-0.99 0.5-0.99 0.5-2 1-0.03-1.94-0.05-3.87-0.06-5.81-0.01-1.08-0.03-2.16-0.04-3.27 0.1-2.92 0.1-2.92 1.1-5.92z" fill="#0B759B"/>
<path transform="translate(1091,468)" d="m0 0h48c-2.88 2.88-5.85 2.37-9.72 2.45-0.77 0.02-1.54 0.04-2.34 0.07-1.64 0.04-3.28 0.08-4.92 0.11-2.48 0.06-4.96 0.13-7.44 0.2-7.96 0.21-15.7 0.24-23.6-0.83v-2z" fill="#000002"/>
<path transform="translate(560,458)" d="m0 0 2 1c-1.45 1.17-2.91 2.34-4.38 3.5-0.81 0.65-1.62 1.3-2.46 1.97-2.16 1.53-2.16 1.53-4.16 1.53l1 2c2.02 0.65 2.02 0.65 4 1-0.64 0.31-1.28 0.62-1.94 0.94-2 0.89-2 0.89-3.06 2.06-4.75 0.28-8.67 0.06-13-2-0.66-2.08-0.66-2.08-1-4 1.13 0 1.13 0 2.27-0.01 8.02-0.3 14.9-2.14 20.7-7.99z" fill="#096485"/>
<path transform="translate(1090,470)" d="m0 0h11l1 3-5 1h5v1h-5l-1 3h-3v4c-0.99-0.33-1.98-0.66-3-1-1.49-2.99-1.12-5.71-1-9l1-2z" fill="#0F97C8"/>
<path transform="translate(898,467)" d="m0 0c1.12 0.16 2.25 0.33 3.4 0.5 7.69 0.85 15.4 0.6 23.2 0.56 1.6 0 3.2-0.01 4.79-0.01 3.89-0.01 7.77-0.03 11.6-0.05l-1 2c-6.37 1.5-12.9 1.19-19.4 1.19-2.14 0-4.28 0.02-6.41 0.03-1.37 0.01-2.74 0.01-4.11 0.01-1.85 0.01-1.85 0.01-3.74 0.01-3.22-0.23-5.43-0.86-8.32-2.24v-2z" fill="#000002"/>
<path transform="translate(892,451)" d="m0 0 4 2-2 13c-2.97-0.33-5.94-0.66-9-1v-3c0.99-0.33 1.98-0.66 3-1l-3-3c1-1 1-1 3.56-1.06 1.21 0.03 1.21 0.03 2.44 0.06v-2h-2v-2l3-2z" fill="#13A2D4"/>
<path transform="translate(776,458)" d="m0 0c0.99 0.33 1.98 0.66 3 1 1.17 7.77 1.17 7.77 0 12 0.16 0.78 0.33 1.57 0.5 2.38 0.59 3.12 0.15 5.53-0.5 8.62-0.99-0.33-1.98-0.66-3-1-0.91-2.73-1.13-4.35-1.13-7.16 0-0.79-0.01-1.59-0.01-2.4 0.01-0.83 0.01-1.65 0.02-2.5-0.01-0.83-0.01-1.66-0.02-2.51 0-0.79 0.01-1.59 0.01-2.4v-2.2c0.13-1.83 0.13-1.83 1.13-3.83z" fill="#0F99CA"/>
<path transform="translate(827,388)" d="m0 0h15v2c-0.94 0.22-0.94 0.22-1.9 0.45-2.51 0.68-4.77 1.39-7.1 2.55-1.68 3.03-1.68 3.03-2 6l-5-1 1-10z" fill="#0B7297"/>
<path transform="translate(1064 380)" d="m0 0c0.98-0 1.96-0.01 2.97-0.01 2.53 0.13 2.53 0.13 4.53 1.13v2c-4.45 0.5-4.45 0.5-9 1-0.12 0.79-0.25 1.57-0.38 2.38-0.62 2.62-0.62 2.62-2.62 4.62v2c-0.99-0.32-1.98-0.66-3-1-1.12-7.62-1.12-7.62 0-11 2.61-1.3 4.59-1.13 7.5-1.12z" fill="#0F99CA"/>
<path transform="translate(255,494)" d="m0 0c1.9 0.77 3.79 1.54 5.69 2.31 1.05 0.43 2.11 0.86 3.2 1.3 2.89 1.29 5.43 2.72 8.11 4.39 1.24 0.72 2.49 1.44 3.73 2.16 1.34 0.78 2.68 1.56 4.02 2.34 1.03 0.59 1.03 0.59 2.07 1.18 5.07 2.98 5.07 2.98 6.18 6.32-2.81-0.25-2.81-0.25-6-1-1.01-1.33-2.01-2.66-3-4-1.84-1.08-3.75-1.96-5.68-2.86-2.58-1.27-5-2.71-7.44-4.2-3.56-2.17-7.12-4.16-10.9-5.94v-2z" fill="#000002"/>
<path transform="translate(1433,388)" d="m0 0h15v2c-0.93 0.14-1.86 0.29-2.81 0.44-3.2 0.48-3.2 0.48-6.19 1.56v2h2c0.69 1.75 0.69 1.75 1 4-1.44 2.25-1.44 2.25-3 4l-2-1 1-4h-2v-5l-4-1 1-3z" fill="#0A6485"/>
<path transform="translate(677,444)" d="m0 0c-2.5 2.5-3.42 2.29-6.88 2.41-1.47 0.06-1.47 0.06-2.98 0.12-1.04 0.03-2.07 0.06-3.14 0.09-1.51 0.06-1.51 0.06-3.04 0.12-6.32 0.23-12.6 0.31-19 0.26l1-3c4.52-0.17 9.04-0.33 13.6-0.48 1.54-0.06 3.08-0.11 4.62-0.17 2.21-0.08 4.42-0.16 6.62-0.23 0.69-0.03 1.38-0.05 2.09-0.08 4.88-0.15 4.88-0.15 7.11 0.96z" fill="#000002"/>
<path transform="translate(457,413)" d="m0 0c1 3 1 3 1 6-6.38 0.25-6.38 0.25-9.62-1.06-2.38-1.19-2.38-1.19-5-0.38-1.18 0.22-1.18 0.22-2.38 0.44-1.81-1.44-1.81-1.44-3-3 2.62-1.31 4.89-1.34 7.81-1.56 1.56-0.13 1.56-0.13 3.15-0.26 2.69-0.16 5.34-0.21 8.04-0.18z" fill="#129FD0"/>
<path transform="translate(386,445)" d="m0 0v24c-0.99-0.33-1.98-0.66-3-1v-22c2-1 2-1 3-1z" fill="#0F99CA"/>
<path transform="translate(167,498)" d="m0 0c-1 3-1 3-3.5 4.38-1.16 0.53-2.31 1.07-3.5 1.62-4.22 2.24-8.39 4.52-12.3 7.25-2.36 1.54-3.94 2.33-6.69 2.75v-3c1.15-0.56 2.29-1.12 3.48-1.7 5.13-2.57 10.1-5.42 15-8.3 5.26-3 5.26-3 7.47-3z" fill="#000002"/>
<path transform="translate(386,417)" d="m0 0v24c-0.99 0.33-1.98 0.66-3 1v-24c2-1 2-1 3-1z" fill="#0F99CA"/>
<path transform="translate(1361,456)" d="m0 0 2 2 2-1c1.2 6.23 0.93 9.37-2 15-0.99-0.33-1.98-0.66-3-1-0.03-1.75-0.05-3.5-0.06-5.25-0.01-0.97-0.03-1.95-0.04-2.95 0.09-2.46 0.39-4.46 1.1-6.8z" fill="#0F99CA"/>
<path transform="translate(976,443)" d="m0 0h3v21c-0.99-0.33-1.98-0.66-3-1v-20z" fill="#109CCD"/>
<path transform="translate(979,426)" d="m0 0 2 1v2h5l1 4c-0.64 0.27-1.28 0.54-1.94 0.81-2.39 1.08-2.39 1.08-3.06 4.19-2.83-3.2-3.63-5.76-4-10l1-2z" fill="#119ED0"/>
<path transform="translate(183,410)" d="m0 0 2 1c-1.21 0.9-1.21 0.9-2.44 1.81-2.78 2-2.78 2-3.56 5.19-1.82 0.59-1.82 0.59-4.12 0.94-3.38 0.62-5.89 1.45-8.82 3.25-1.51 0.89-1.51 0.89-3.06 1.81l-2-1c0.49-0.29 0.98-0.57 1.48-0.87 2.24-1.31 4.47-2.63 6.71-3.94 0.77-0.45 1.54-0.91 2.33-1.37 0.75-0.44 1.5-0.88 2.27-1.34 0.73-0.43 1.46-0.85 2.21-1.29 1.66-0.99 3.3-2.03 4.93-3.08 0.68-0.36 1.36-0.73 2.07-1.11z" fill="#053142"/>
<path transform="translate(1058,457)" d="m0 0c0.22 1.92 0.43 3.83 0.62 5.75 0.12 1.07 0.24 2.13 0.36 3.23 0.02 3.06-0.37 4.48-1.98 7.02l-2-1v-14c2-1 2-1 3-1z" fill="#0F99CA"/>
<path transform="translate(714,456)" d="m0 0c2 2 2 2 2.23 4.09-0.01 0.8-0.03 1.59-0.04 2.41-0.01 0.79-0.02 1.59-0.02 2.41-0.17 2.09-0.17 2.09-1.17 4.09l2 1c-0.75 5.75-0.75 5.75-3 8-1.27-7.15-2.08-15 0-22z" fill="#0F99CA"/>
<path transform="translate(890,468)" d="m0 0c2.12 3.53 2.53 6.94 3 11 0.74 0.14 1.49 0.29 2.25 0.44 2.27 0.46 4.51 0.98 6.75 1.56v2c-10.3-1.87-10.3-1.87-13-5-0.98-3.29-1.33-5.16-0.06-8.38 0.52-0.8 0.52-0.8 1.06-1.62z" fill="#119DCE"/>
<path transform="translate(633,466)" d="m0 0c1.78 0.48 1.78 0.48 3.59 0.96 6.6 1.47 13.2 1.5 20 1.66 1.3 0.04 2.59 0.08 3.93 0.12 3.17 0.1 6.34 0.18 9.51 0.26 0.5 0.99 0.5 0.99 1 2-4.29 0.07-8.57 0.13-12.9 0.16-1.46 0.02-2.91 0.04-4.37 0.07-2.1 0.03-4.2 0.05-6.31 0.06-1.89 0.03-1.89 0.03-3.82 0.05-4.2-0.39-6.87-1.5-10.6-3.34v-2z" fill="#000002"/>
<path transform="translate(1056,437)" d="m0 0c0.99 0.33 1.98 0.66 3 1 0.05 1.79 0.09 3.58 0.12 5.38 0.03 0.99 0.05 1.99 0.08 3.02-0.2 2.6-0.2 2.6-2.2 4.6l-2-1c-0.03-1.98-0.05-3.96-0.06-5.94-0.01-1.1-0.03-2.2-0.04-3.34 0.1-2.72 0.1-2.72 1.1-3.72z" fill="#0F99CA"/>
<path transform="translate(668,413)" d="m0 0c1.46-0.03 2.92-0.05 4.38-0.06 0.81-0.01 1.62-0.03 2.46-0.04 2.16 0.1 2.16 0.1 4.16 1.1v2l-7 2h7v1c-7.38 0.49-7.38 0.49-10.5-2-0.5-0.66-0.99-1.32-1.5-2l1-2z" fill="#0F99CA"/>
<path transform="translate(487,458)" d="m0 0 1 2c2.02 0.65 2.02 0.65 4 1 1.12 5.75 1.12 5.75 0 8-2.22-1.11-4.04-2.49-6-4l1-7z" fill="#0F99CA"/>
<path transform="translate(1090,425)" d="m0 0 4 2c0.1 4.54-0.57 7.71-2 12-3.1-2.54-4.22-5.09-5-9 1.38-2.88 1.38-2.88 3-5z" fill="#0F99CB"/>
<path transform="translate(1432,397)" d="m0 0c1.49 1.14 1.49 1.14 3 3 0.29 2.7 0.29 2.7 0.19 5.69-0.03 0.99-0.06 1.99-0.08 3.01-0.04 0.76-0.07 1.52-0.11 2.3l-4-1c-0.03-1.6-0.05-3.21-0.06-4.81-0.01-0.9-0.03-1.79-0.04-2.71 0.1-2.48 0.1-2.48 1.1-5.48z" fill="#0F99CA"/>
<path transform="translate(102,380)" d="m0 0 2 1-1 14c-0.99 0.33-1.98 0.66-3 1-0.05-2.1-0.09-4.21-0.12-6.31-0.03-1.17-0.05-2.35-0.08-3.55 0.2-3.14 0.2-3.14 2.2-6.14z" fill="#0E8EBB"/>
<path transform="translate(452,413)" d="m0 0h5c1 3 1 3 1 6h-7l-1-2c0.94-2.12 0.94-2.12 2-4z" fill="#0F9ACB"/>
<path transform="translate(1064 380)" d="m0 0c0.98-0 1.96-0.01 2.97-0.01 2.53 0.13 2.53 0.13 4.53 1.13v2h-15v-2c2.61-1.3 4.59-1.13 7.5-1.12z" fill="#000002"/>
<path transform="translate(881,453)" d="m0 0h2v7h-2v7c-1.99-2.81-2.08-4.82-1.69-8.12 0.69-3.88 0.69-3.88 1.69-5.88z" fill="#119ED0"/>
<path transform="translate(101,390)" d="m0 0h1c0.83 3.23 1.14 6.37 1.25 9.69 0.03 0.76 0.05 1.53 0.08 2.32-0.16 0.99-0.16 0.99-0.33 1.99l-3 2c-0.1-5.45-0.13-10.6 1-16z" fill="#109BCC"/>
<path transform="translate(146,431)" d="m0 0 2 1c-4.96 5.1-7.86 7.19-15 8 4-3.37 8.27-6.71 13-9z" fill="#042633"/>
<path transform="translate(1105,438)" d="m0 0c3 2 3 2 5 5-3.98 1.05-6.98 0.84-11 0l3-3 2 1 1-3z" fill="#0F99CA"/>
<path transform="translate(1158,448)" d="m0 0c0.99 0.5 0.99 0.5 2 1l-1 2-1-3z" fill="#000002"/>
<path transform="translate(694,440)" d="m0 0 1 4z" fill="#000102"/>
<path transform="translate(956,424)" d="m0 0c0.99 0.5 0.99 0.5 2 1l-1 2-1-3z" fill="#000102"/>
<path transform="translate(693,424)" d="m0 0c0.99 0.5 0.99 0.5 2 1l-1 2-1-3z" fill="#000002"/>
<path transform="translate(493,421)" d="m0 0h2l-1 2-1-2z" fill="#000002"/>
<path transform="translate(326,381)" d="m0 0 2 1z" fill="#000002"/>
</svg>
