<?xml version="1.0" standalone="no"?>
<!DOCTYPE svg PUBLIC "-//W3C//DTD SVG 20010904//EN"
 "http://www.w3.org/TR/2001/REC-SVG-20010904/DTD/svg10.dtd">
<svg version="1.0" xmlns="http://www.w3.org/2000/svg"
 width="542.000000pt" height="186.000000pt" viewBox="0 0 542.000000 186.000000"
 preserveAspectRatio="xMidYMid meet">

<g transform="translate(0.000000,186.000000) scale(0.100000,-0.100000)"
fill="#000000" stroke="none">
<path d="M0 930 l0 -930 2710 0 2710 0 0 930 0 930 -2710 0 -2710 0 0 -930z
m5283 854 c26 -9 61 -27 78 -41 l30 -26 -47 -48 c-27 -27 -52 -49 -56 -49 -4
0 -24 11 -44 25 -58 39 -154 29 -154 -16 0 -21 49 -57 101 -74 142 -46 199
-106 199 -206 0 -44 -21 -103 -48 -132 -41 -46 -92 -61 -202 -62 -113 0 -161
14 -225 69 l-30 25 51 51 51 52 46 -33 c75 -53 187 -48 195 8 4 29 -25 57 -84
78 -27 10 -73 29 -102 42 -86 40 -126 124 -103 211 35 127 177 179 344 126z
m-5013 -309 l0 -315 -80 0 -80 0 0 315 0 315 80 0 80 0 0 -315z m367 139 l138
-176 3 176 2 176 80 0 80 0 0 -315 0 -315 -62 0 -63 1 -135 172 -135 172 -3
-173 -2 -172 -80 0 -80 0 0 315 0 315 59 0 59 0 139 -176z m589 39 c76 -219
91 -256 97 -246 4 6 35 92 71 193 36 100 67 184 69 186 3 3 41 4 85 2 l79 -3
-83 -220 c-47 -121 -100 -262 -120 -312 l-36 -93 -73 0 -74 0 -19 53 c-160
424 -212 565 -212 570 0 4 38 7 84 7 l84 0 48 -137z m934 72 l0 -65 -150 0
-150 0 0 -55 0 -55 140 0 140 0 0 -65 0 -65 -140 0 -140 0 0 -65 0 -65 155 0
155 0 0 -65 0 -65 -235 0 -235 0 0 315 0 315 230 0 230 0 0 -65z m356 -112
l139 -178 3 178 2 177 80 0 80 0 0 -315 0 -315 -62 0 -63 0 -135 171 -135 172
-3 -172 -2 -171 -80 0 -80 0 0 315 0 315 58 0 58 0 140 -177z m924 112 l0 -64
-97 -3 -98 -3 -3 -247 -2 -248 -80 0 -80 0 0 250 0 250 -95 0 -95 0 0 65 0 65
275 0 275 0 0 -65z m473 -243 c64 -169 117 -311 117 -315 0 -4 -37 -7 -83 -7
l-83 0 -18 55 -17 55 -119 0 -119 0 -17 -55 -18 -55 -83 0 -83 0 19 48 c10 26
65 167 122 315 l103 267 81 0 80 0 118 -308z m562 289 c51 -23 92 -71 101
-117 17 -94 -23 -182 -97 -213 -22 -9 -39 -19 -39 -23 0 -4 37 -58 83 -120 46
-62 87 -119 91 -125 5 -10 -14 -13 -86 -13 l-93 0 -85 126 -85 126 -3 -126 -3
-126 -84 0 -85 0 0 315 0 315 173 0 c145 0 178 -3 212 -19z m365 -296 l0 -315
-80 0 -80 0 0 315 0 315 80 0 80 0 0 -315z m-4359 -845 c10 -25 64 -168 122
-318 l105 -273 -85 3 -85 3 -20 53 -19 52 -118 0 -117 0 -19 -55 -18 -55 -84
0 c-46 0 -82 3 -80 8 4 5 177 451 238 610 8 21 13 23 86 20 l77 -3 17 -45z
m447 -202 l2 -248 135 0 135 0 0 -70 0 -70 -215 0 -215 0 0 320 0 321 78 -3
77 -3 3 -247z m759 57 c40 -104 95 -248 122 -318 l49 -128 -85 3 -86 3 -17 50
-17 50 -119 3 -120 3 -18 -56 -17 -55 -85 0 c-47 0 -83 3 -81 8 4 5 188 478
236 605 11 28 12 28 88 25 l77 -3 73 -190z m671 123 l3 -67 -98 -3 -98 -3 -3
-248 -2 -247 -80 0 -80 0 0 250 0 250 -95 0 -95 0 0 70 0 70 273 -2 272 -3 3
-67z m590 -147 c3 -258 -6 -303 -72 -366 -48 -47 -100 -65 -182 -65 -66 0
-126 23 -161 62 l-23 24 48 47 47 47 42 -21 c49 -24 90 -19 119 13 17 18 19
43 22 249 l4 230 76 -3 77 -3 3 -214z m610 147 l3 -67 -98 -3 -98 -3 -3 -248
-2 -247 -80 0 -80 0 0 250 0 250 -95 0 -95 0 0 70 0 70 273 -2 272 -3 3 -67z
m232 -248 l0 -320 -80 0 -80 0 0 320 0 320 80 0 80 0 0 -320z"/>
<path d="M3706 1590 c-13 -34 -66 -184 -66 -187 0 -2 32 -3 71 -3 65 0 70 1
64 19 -36 115 -64 183 -69 171z"/>
<path d="M4260 1600 l0 -70 51 0 c78 0 109 21 109 76 0 47 -26 64 -98 64 l-62
0 0 -70z"/>
<path d="M380 479 c0 -2 -16 -48 -35 -101 l-35 -98 70 0 c39 0 70 4 70 9 0 11
-60 184 -66 190 -2 2 -4 2 -4 0z"/>
<path d="M1530 479 c0 -2 -16 -48 -35 -101 l-35 -98 70 0 c39 0 70 4 70 9 0
11 -60 184 -66 190 -2 2 -4 2 -4 0z"/>
</g>
</svg>
