<?xml version="1.0"?>
<svg version="1.1" xmlns="http://www.w3.org/2000/svg" width="219px" height="45px" style=""><path fill="#" d="M0.84,35.1l0-1.785l1.575-0.63l0-9.87l-1.575-0.63l0-1.785l6.405-0.105l0,1.89l-1.575,0.63l0,9.87l1.575,0.63l0,1.785l-6.405,0z M14.73171,23.76l0.147,1.449s1.995-1.617,3.864-1.617c2.037,0,3.192,1.449,3.192,3.738l0,5.565l1.47,0.525l0,1.68l-5.775,0l0-1.68l1.155-0.525l0-4.998c0-0.966-0.546-1.68-1.428-1.68c-1.302,0-2.247,1.197-2.247,1.197l0,5.481l1.155,0.525l0,1.68l-5.985,0l0-1.68l1.68-0.525l0-6.825l-1.68-0.525l0-1.68z M32.36142,25.545l0-1.68l5.502-0.105l0,1.785l-1.197,0.273l-3.381,9.282l-3.465,0l-3.318-9.219l-1.008-0.336l0-1.68l5.502-0.105l0,1.785l-1.176,0.21l1.911,6.195l1.848-6.132z M50.41113,30.123l-6.972,0c0.126,1.68,1.092,2.667,2.541,2.667c1.743,0,3.528-0.987,3.528-0.987l0.903,1.743s-2.1,1.764-4.788,1.764c-3.612,0-5.46-2.1-5.46-5.67c0-3.675,2.079-6.09,5.607-6.09c3.129,0,4.767,1.932,4.767,4.935c0,0.798-0.126,1.575-0.126,1.638z M43.48113,28.17l3.801,0c0-1.197-0.504-2.1-1.722-2.1c-1.176,0-1.911,0.861-2.079,2.1z M57.91884,23.76l0.147,1.449s1.995-1.617,3.864-1.617c2.037,0,3.192,1.449,3.192,3.738l0,5.565l1.47,0.525l0,1.68l-5.775,0l0-1.68l1.155-0.525l0-4.998c0-0.966-0.546-1.68-1.428-1.68c-1.302,0-2.247,1.197-2.247,1.197l0,5.481l1.155,0.525l0,1.68l-5.985,0l0-1.68l1.68-0.525l0-6.825l-1.68-0.525l0-1.68z M76.76655,32.412l0.756,1.596c-1.029,0.756-2.205,1.302-3.57,1.302c-2.415,0-3.108-1.68-3.108-4.095l0-4.83l-1.953,0l0-2.037l1.953-0.273l0-2.898l3.15-0.567l0,3.465l2.94,0l0,2.31l-2.94,0l0,4.62c0,1.344,0.231,1.89,1.113,1.89c0.567,0,1.386-0.336,1.659-0.483z M87.08826,35.1l-0.378-1.365s-1.617,1.575-3.402,1.575c-2.037,0-3.276-1.197-3.276-3.297c0-2.478,1.869-3.465,5.061-3.465l1.47,0l0-1.155c0-1.071-0.567-1.533-1.617-1.533c-1.071,0-1.848,0.315-1.848,0.315l-0.315,1.323l-1.89,0l-0.147-3.108s2.541-0.84,4.557-0.84c3.192,0,4.41,1.113,4.41,4.158l0,5.187l1.575,0.378l0,1.68z M86.56326,30.333l-1.197,0c-1.638,0-2.289,0.42-2.289,1.365c0,0.798,0.441,1.26,1.239,1.26c1.113,0,2.247-1.218,2.247-1.218l0-1.407z M98.41797,23.76l0.189,1.449s1.512-1.659,2.919-1.659c1.155,0,1.953,0.378,1.953,0.378l-0.168,4.032l-1.89,0l-0.315-1.785c-1.218,0-2.268,1.176-2.268,1.176l0,5.544l2.1,0.525l0,1.68l-6.93,0l0-1.68l1.68-0.525l0-6.825l-1.68-0.525l0-1.68z M107.08068,20.295c0-1.197,0.861-1.89,1.806-1.89c1.092,0,1.764,0.567,1.764,1.89c0,1.239-0.903,1.911-1.764,1.911c-1.134,0-1.806-0.672-1.806-1.911z M110.60868,32.895l1.47,0.525l0,1.68l-6.3,0l0-1.68l1.68-0.525l0-6.825l-1.68-0.525l0-1.68l4.83-0.105l0,9.135z M116.85639,31.425l0.168,1.365s0.735,0.21,1.764,0.21c1.155,0,1.722-0.357,1.722-1.029c0-1.722-5.607-1.092-5.607-4.83c0-2.625,2.1-3.591,4.326-3.591c1.89,0,3.906,0.63,3.906,0.63l-0.084,3.15l-1.785,0l-0.315-1.26s-0.609-0.21-1.449-0.21c-0.903,0-1.449,0.378-1.449,1.071c0,1.701,5.607,0.966,5.607,4.599c0,2.415-1.953,3.78-4.83,3.78c-1.995,0-3.864-0.462-3.864-0.462l0-3.423l1.89,0z M138.00381,22.815l0,10.059c0,3.654-1.092,5.586-4.788,5.586c-0.672,0-1.596-0.147-1.596-0.147l0.273-2.163l1.008,0c1.26,0,1.848-0.693,1.848-2.016l0-11.319l-1.575-0.63l0-1.785l6.405-0.105l0,1.89z M146.43552,32.685l0-9.87l-1.995,0l-0.525,1.995l-1.932,0l0-4.515l12.18,0l0,4.515l-1.953,0l-0.525-1.995l-1.995,0l0,9.87l1.995,0.63l0,1.785l-7.245,0l0-1.785z M156.67323,35.1l0-1.785l1.575-0.63l0-9.87l-1.575-0.63l0-1.785l6.405-0.105l0,1.89l-1.575,0.63l0,9.87l1.575,0.63l0,1.785l-6.405,0z"/><path fill="#" d=""/></svg>
